<svg width="202" height="256" viewBox="0 0 202 256" fill="none" xmlns="http://www.w3.org/2000/svg">
<g id="Group 5">
<path id="Vector" d="M14.1478 0.899921C16.5319 0.62388 17.9849 0.75621 20.263 1.51145C23.5047 2.5861 25.258 3.96869 27.2956 6.70942C28.9233 8.89882 30.0475 13.1304 30.0475 13.1304C35.3881 8.68669 41.9111 5.42522 49.6163 3.34603C57.3215 1.26684 54.7952 2.01179 58.1777 1.51145C63.6165 0.706948 66.7535 0.591001 72.2428 0.899921C74.6391 1.03478 76.2158 1.3367 78.358 1.51145C81.7661 1.78944 83.631 2.40876 86.9194 3.34603C92.3786 4.90202 92.3824 4.20216 100.373 8.84976C108.364 13.4974 115.192 19.3069 120.859 26.2783C127.464 33.9427 131.948 43.7271 134.313 55.6315C136.677 67.5359 134.924 123.511 134.924 123.511C134.068 127.547 132.132 130.503 129.115 132.378C126.098 134.253 125.916 134.358 123.611 134.824C121.504 135.25 118.107 134.824 118.107 134.824C113.949 133.723 110.769 131.155 110.769 131.155C110.769 131.155 106.794 127.18 106.794 124.122C106.794 121.065 108.506 67.9436 106.182 59.3007C103.859 50.6578 100.714 44.9807 93.6462 38.8146C88.8918 34.6667 85.6356 32.64 79.5811 30.8647C77.244 30.1795 75.8828 29.9416 73.4658 29.6417C69.4369 29.1417 63.0699 29.6417 63.0699 29.6417C63.0699 29.6417 55.1201 30.4524 50.5336 32.6993C45.9472 34.9462 40.2478 40.9701 38.3031 43.401C34.6339 47.9874 34.9616 47.6639 33.4109 50.7393C31.1656 55.1919 29.7417 59.3007 29.7417 62.9698C29.7417 66.639 30.7609 120.453 29.7417 124.122C28.7225 127.792 26.786 130.544 23.9322 132.378C21.0784 134.213 20.7339 134.358 18.4285 134.824C16.3218 135.25 12.9247 134.824 12.9247 134.824C8.76635 133.723 5.60679 131.583 3.44606 128.403C3.44606 128.403 1.91721 126.874 1.61148 124.122C1.30576 121.371 0.836884 15.9231 1.61148 12.2132C2.38608 8.50323 4.11874 5.75136 6.80946 3.95755C9.50018 2.16374 11.0638 1.25699 14.1478 0.899921Z" fill="#E3D3C2" stroke="#E3D3C2"/>
<path id="Vector_2" d="M70.4082 205.15C71.6364 205.097 72.4236 205.694 73.16 206.679C73.4799 207.106 73.7716 207.902 73.7716 207.902V215.546C77.1146 214.934 79.8868 215.24 80.4984 217.686C81.1099 220.132 78.9696 221.049 78.9696 221.049C78.9696 221.049 76.5846 222.069 73.7716 221.661V237.866L74.6889 238.784C77.1757 238.498 79.2753 238.784 79.8868 239.395C80.4984 240.007 81.273 240.883 80.4984 242.759C79.7238 244.634 77.7873 245.347 74.6889 244.899C71.5905 244.45 73.1422 244.688 72.2428 244.287C70.9991 243.733 70.3733 243.184 69.4909 242.147C68.4526 240.927 67.6563 238.478 67.6563 238.478V207.29C67.6563 207.29 69.048 205.209 70.4082 205.15Z" fill="#E3D3C2" stroke="#E3D3C2"/>
<path id="Vector_3" d="M111.992 204.844C113.421 204.644 114.744 206.679 114.744 206.679V216.463C114.744 216.463 119.96 215.349 122.388 215.546C124.121 215.686 125.121 215.976 126.669 216.769C128.478 217.696 129.379 218.54 130.644 220.132C131.972 221.805 133.09 225.024 133.09 225.024V243.37C133.09 243.37 131.142 245.177 129.726 244.899C128.718 244.701 127.586 243.37 127.586 243.37V226.859C127.586 226.859 126.171 223.338 124.223 222.272C122.533 221.349 121.182 221.134 119.33 221.661C117.374 222.217 116.271 223.209 115.355 225.024C115.015 225.699 114.744 226.859 114.744 226.859V243.37C114.744 243.37 114.244 244 113.827 244.287C113.016 244.846 112.35 245.073 111.38 244.899C110.369 244.717 109.24 243.37 109.24 243.37V207.29C109.24 207.29 109.397 206.216 109.852 205.761C110.306 205.307 111.355 204.933 111.992 204.844Z" fill="#E3D3C2" stroke="#E3D3C2"/>
<path id="Vector_4" d="M3.75181 215.546C3.75181 215.546 4.503 215.472 4.97486 215.546C6.48555 215.783 8.03249 217.992 8.03249 217.992C10.1932 216.28 13.2304 215.546 17.2054 215.546C21.1803 215.546 23.3396 216.651 26.0726 219.215C29.0346 221.994 30.3532 225.636 30.3532 228.694C30.3532 231.751 30.3532 242.147 30.3532 242.147C30.3532 242.147 29.6779 243.716 28.8244 244.287C28.0062 244.835 27.3395 245.113 26.3783 244.899C25.2244 244.643 24.2379 242.759 24.2379 242.759V228.082C24.2379 228.082 23.5777 224.659 22.0976 223.19C19.8537 220.963 16.8792 221.376 14.1478 221.661C11.4978 222.272 9.56131 223.597 8.33825 225.636C7.1152 227.674 7.1152 228.082 7.1152 228.082V242.759C7.1152 242.759 6.12074 244.609 4.97486 244.899C3.57623 245.253 2.47607 244.525 1.61147 243.37C1.29146 242.943 0.999939 242.147 0.999939 242.147V218.298C0.999939 218.298 1.69803 216.761 2.52875 216.157C2.96063 215.843 3.23052 215.662 3.75181 215.546Z" fill="#E3D3C2" stroke="#E3D3C2"/>
<path id="Vector_5" d="M47.1702 215.546C47.1702 215.546 53.8969 215.546 57.2603 218.603C60.6238 221.661 61.7308 222.717 62.7641 226.247C63.6362 229.227 63.7425 230.895 62.7641 234.197C61.7856 237.499 60.053 240.047 57.5661 241.841C55.1608 243.92 51.6955 244.94 47.1702 244.899C42.278 244.084 38.7107 241.943 36.4684 238.478C34.2262 235.013 34.4052 234.906 34.0223 232.363C33.7735 230.71 34.0223 228.082 34.0223 228.082C35.0008 223.557 37.1411 220.193 40.4434 217.992C43.7456 215.79 47.1702 215.546 47.1702 215.546ZM47.1702 221.661C44.724 221.967 43.1953 223.19 43.1953 223.19C43.1953 223.19 40.8228 225.752 40.1376 228.388C39.3358 231.471 40.3414 234.707 41.9722 236.338C43.6029 237.968 44.4183 238.478 46.2529 238.784C48.0875 239.089 51.9604 238.784 53.5912 237.561C55.2219 236.338 56.445 234.503 57.2603 232.057C57.668 229.203 57.3023 228.023 56.0373 225.942C53.984 222.564 49.6163 221.355 47.1702 221.661Z" fill="#E3D3C2" stroke="#E3D3C2"/>
<path id="Vector_6" d="M96.7038 215.546C99.4807 215.301 102.208 214.934 103.736 216.769C105.265 218.603 104.348 220.744 104.348 220.744C103.777 222.007 102.452 222.517 100.373 222.272C99.7614 221.253 98.3346 221.049 96.0923 221.661C93.85 222.272 92.8914 222.85 91.5058 224.413C89.2378 226.972 88.6415 229.714 89.6713 232.974C90.3401 235.092 91.2089 236.296 93.0347 237.561C95.4229 239.215 96.9892 239.314 100.373 238.784C103.757 238.254 101.454 238.128 102.208 238.172C102.849 238.21 103.23 238.387 103.736 238.784C104.973 239.752 105.138 241.401 104.348 242.759C103.831 243.646 103.129 243.833 102.208 244.287C100.268 245.243 98.2327 244.899 96.7038 244.899C95.175 244.899 88.2444 241.943 86.0021 238.478C83.7598 235.013 84.0223 235.28 83.556 232.974C83.1299 230.867 83.556 228.999 83.556 227.47C83.556 225.942 86.2557 220.47 89.977 217.992C92.3036 216.442 93.9193 215.791 96.7038 215.546Z" fill="#E3D3C2" stroke="#E3D3C2"/>
<path id="Vector_7" d="M174.368 1.51145L200.358 31.4762H189.044L188.739 129.626C188.739 129.626 187.698 137.193 186.292 141.857C184.564 147.591 184.05 149.195 180.177 155.922C176.304 162.649 165.806 173.35 165.806 173.35C165.806 173.35 150.885 183.706 141.345 186.804C131.805 189.902 133.959 188.741 129.115 189.25C123.652 189.824 120.512 189.824 115.05 189.25C110.205 188.741 107.486 188.197 102.819 186.804C96.5689 184.938 94.2577 184.154 87.5309 180.077C80.8041 176 70.531 168.815 63.9872 158.062C58.3139 148.739 57.7496 145.241 55.4258 131.461V65.416C56.4858 62.3991 58.2184 60.0549 60.6238 58.3834C63.0291 56.7119 63.8106 56.3427 66.1275 55.9373C67.7742 55.6491 66.9021 55.1627 70.4082 55.9373C73.9143 56.7119 76.6661 58.2407 78.6638 60.5237C80.6614 62.8068 81.7214 66.639 81.7214 66.639V125.651C81.7214 125.651 81.8676 129.932 82.9445 133.295C84.0213 136.659 89.6526 148.869 97.9269 155.005C102.818 158.631 106.529 160.264 111.992 161.731C111.992 161.731 119.429 163.209 124.222 162.954C127.359 162.788 129.133 162.523 132.172 161.731C135.906 160.759 136.371 160.875 141.345 158.062C146.319 155.249 150.498 151.682 153.882 147.36C157.265 143.039 158.297 140.968 159.997 136.353C161.599 132.002 162.443 124.734 162.443 124.734V31.4762H148.378L174.368 1.51145Z" fill="#E3D3C2" stroke="#E3D3C2"/>
<path id="Vector_8" d="M163.972 203.927L169.17 209.736H166.724V233.586C165.827 236.766 164.298 239.314 162.137 241.23C159.976 243.146 158.994 243.599 156.633 244.287C153.653 245.156 151.945 245.307 148.684 244.287C145.422 243.268 142.874 241.536 141.039 239.089C139.205 236.643 139.202 236.635 138.593 234.809C138.208 233.654 137.982 231.751 137.982 231.751V217.686C137.982 217.686 139.493 215.059 141.039 215.24C141.678 215.315 142.419 215.703 142.874 216.157C143.329 216.612 143.486 217.686 143.486 217.686V231.751C144.219 234.686 145.369 236.692 148.072 238.172C150.595 239.553 152.067 239.477 155.41 238.784C158.753 238.091 159.997 235.42 159.997 235.42L161.22 232.974V209.736H158.774L163.972 203.927Z" fill="#E3D3C2" stroke="#E3D3C2"/>
<path id="Vector_9" d="M184.764 215.546C190.038 215.029 194.854 217.278 197.3 220.744C197.3 220.744 199.669 223.887 200.357 226.247C201.226 229.228 201.202 231.21 200.357 234.197C199.376 237.671 197.687 239.681 195.159 241.841C192.632 244.002 188.963 245.021 184.152 244.899L181.094 244.287L178.037 242.453L177.731 252.543C177.731 252.543 177.914 254.969 175.591 255.295C173.267 255.621 171.942 254.908 171.616 253.155V228.082C172.594 223.557 174.735 220.193 178.037 217.992C181.339 215.79 181.982 215.818 184.764 215.546ZM184.458 221.661C182.9 222.037 182.038 222.493 180.789 223.496C179.187 224.781 178.037 225.636 177.731 227.776C177.425 229.917 177.731 233.891 178.343 234.503C178.954 235.115 181.604 238.376 184.458 238.784C187.312 239.191 189.554 238.784 191.185 237.561C192.815 236.338 194.383 234.597 194.854 232.057C195.297 229.662 194.548 227.776 193.631 225.942C192.713 224.107 191.177 222.368 188.738 221.661C187.133 221.195 186.083 221.269 184.458 221.661Z" fill="#E3D3C2" stroke="#E3D3C2"/>
</g>
</svg>
